<svg width="105" height="12" viewBox="0 0 105 12" fill="none" xmlns="http://www.w3.org/2000/svg">
<path d="M12.9661 4.50209C12.881 4.25036 12.6476 4.07156 12.3713 4.04775L8.61917 3.72194L7.13546 0.400934C7.02606 0.157547 6.77691 0 6.50008 0C6.22326 0 5.97411 0.157547 5.8647 0.401503L4.381 3.72194L0.628236 4.04775C0.352502 4.07213 0.119615 4.25036 0.0340188 4.50209C-0.0515778 4.75382 0.0274726 5.02993 0.236058 5.20398L3.07225 7.58265L2.23592 11.1057C2.17473 11.3647 2.27986 11.6325 2.50462 11.7879C2.62542 11.8713 2.76676 11.9138 2.90929 11.9138C3.03218 11.9138 3.15408 11.8821 3.26348 11.8195L6.50008 9.96966L9.7355 11.8195C9.97225 11.9557 10.2707 11.9433 10.495 11.7879C10.7198 11.632 10.8248 11.3642 10.7636 11.1057L9.92732 7.58265L12.7635 5.20446C12.9721 5.02993 13.0517 4.7543 12.9661 4.50209Z" fill="#FF6200"/>
<path d="M35.9661 4.50209C35.881 4.25036 35.6476 4.07156 35.3713 4.04775L31.6192 3.72194L30.1355 0.400934C30.0261 0.157547 29.7769 0 29.5001 0C29.2233 0 28.9741 0.157547 28.8647 0.401503L27.381 3.72194L23.6282 4.04775C23.3525 4.07213 23.1196 4.25036 23.034 4.50209C22.9484 4.75382 23.0275 5.02993 23.2361 5.20398L26.0723 7.58265L25.2359 11.1057C25.1747 11.3647 25.2799 11.6325 25.5046 11.7879C25.6254 11.8713 25.7668 11.9138 25.9093 11.9138C26.0322 11.9138 26.1541 11.8821 26.2635 11.8195L29.5001 9.96966L32.7355 11.8195C32.9722 11.9557 33.2707 11.9433 33.495 11.7879C33.7198 11.632 33.8248 11.3642 33.7636 11.1057L32.9273 7.58265L35.7635 5.20446C35.9721 5.02993 36.0517 4.7543 35.9661 4.50209Z" fill="#FF6200"/>
<path d="M58.9661 4.50209C58.881 4.25036 58.6476 4.07156 58.3713 4.04775L54.6192 3.72194L53.1355 0.400934C53.0261 0.157547 52.7769 0 52.5001 0C52.2233 0 51.9741 0.157547 51.8647 0.401503L50.381 3.72194L46.6282 4.04775C46.3525 4.07213 46.1196 4.25036 46.034 4.50209C45.9484 4.75382 46.0275 5.02993 46.2361 5.20398L49.0723 7.58265L48.2359 11.1057C48.1747 11.3647 48.2799 11.6325 48.5046 11.7879C48.6254 11.8713 48.7668 11.9138 48.9093 11.9138C49.0322 11.9138 49.1541 11.8821 49.2635 11.8195L52.5001 9.96966L55.7355 11.8195C55.9722 11.9557 56.2707 11.9433 56.495 11.7879C56.7198 11.632 56.8248 11.3642 56.7636 11.1057L55.9273 7.58265L58.7635 5.20446C58.9721 5.02993 59.0517 4.7543 58.9661 4.50209Z" fill="#FF6200"/>
<path d="M81.9661 4.50209C81.881 4.25036 81.6476 4.07156 81.3713 4.04775L77.6192 3.72194L76.1355 0.400934C76.0261 0.157547 75.7769 0 75.5001 0C75.2233 0 74.9741 0.157547 74.8647 0.401503L73.381 3.72194L69.6282 4.04775C69.3525 4.07213 69.1196 4.25036 69.034 4.50209C68.9484 4.75382 69.0275 5.02993 69.2361 5.20398L72.0723 7.58265L71.2359 11.1057C71.1747 11.3647 71.2799 11.6325 71.5046 11.7879C71.6254 11.8713 71.7668 11.9138 71.9093 11.9138C72.0322 11.9138 72.1541 11.8821 72.2635 11.8195L75.5001 9.96966L78.7355 11.8195C78.9722 11.9557 79.2707 11.9433 79.495 11.7879C79.7198 11.632 79.8248 11.3642 79.7636 11.1057L78.9273 7.58265L81.7635 5.20446C81.9721 5.02993 82.0517 4.7543 81.9661 4.50209Z" fill="#FF6200"/>
<path d="M104.966 4.50209C104.881 4.25036 104.648 4.07156 104.371 4.04775L100.619 3.72194L99.1355 0.400934C99.0261 0.157547 98.7769 0 98.5001 0C98.2233 0 97.9741 0.157547 97.8647 0.401503L96.381 3.72194L92.6282 4.04775C92.3525 4.07213 92.1196 4.25036 92.034 4.50209C91.9484 4.75382 92.0275 5.02993 92.2361 5.20398L95.0723 7.58265L94.2359 11.1057C94.1747 11.3647 94.2799 11.6325 94.5046 11.7879C94.6254 11.8713 94.7668 11.9138 94.9093 11.9138C95.0322 11.9138 95.1541 11.8821 95.2635 11.8195L98.5001 9.96966L101.735 11.8195C101.972 11.9557 102.271 11.9433 102.495 11.7879C102.72 11.632 102.825 11.3642 102.764 11.1057L101.927 7.58265L104.764 5.20446C104.972 5.02993 105.052 4.7543 104.966 4.50209Z" fill="#FF6200"/>
</svg>
